HIERARCHY
ROOT hip
{
  OFFSET 0.0 0.0 0.0
  CHANNELS 6 Xposition Yposition Zposition Zrotation Yrotation Xrotation
  JOINT abdomen
  {
    OFFSET 0.0 20.6881 -0.73152
    CHANNELS 3 Zrotation Xrotation Yrotation
    JOINT chest
    {
      OFFSET 0.0 11.7043 -0.48768
      CHANNELS 3 Zrotation Xrotation Yrotation
      JOINT neck
      {
        OFFSET 0.0 22.1894 -2.19456
        CHANNELS 3 Zrotation Xrotation Yrotation
        JOINT head
        {
          OFFSET -0.24384 7.07133 1.2192
          CHANNELS 3 Zrotation Xrotation Yrotation
          JOINT leftEye
          {
            OFFSET 4.14528 8.04674 8.04672
            CHANNELS 3 Zrotation Xrotation Yrotation
            End Site
            {
              OFFSET 1.0 0.0 0.0
            }
          }
          JOINT rightEye
          {
            OFFSET -3.6576 8.04674 8.04672
            CHANNELS 3 Zrotation Xrotation Yrotation
            End Site
            {
              OFFSET 1.0 0.0 0.0
            }
          }
        }
      }
      JOINT rCollar
      {
        OFFSET -2.68224 19.2634 -4.8768
        CHANNELS 3 Zrotation Xrotation Yrotation
        JOINT rShldr
        {
          OFFSET -8.77824 -1.95073 1.46304
          CHANNELS 3 Zrotation Xrotation Yrotation
          JOINT rForeArm
          {
            OFFSET -28.1742 -1.7115 0.48768
            CHANNELS 3 Zrotation Xrotation Yrotation
            JOINT rHand
            {
              OFFSET -22.5879 0.773209 7.07136
              CHANNELS 3 Zrotation Xrotation Yrotation
              JOINT rThumb1
              {
                OFFSET -1.2192 -0.487915 3.41376
                CHANNELS 3 Zrotation Xrotation Yrotation
                JOINT rThumb2
                {
                  OFFSET -3.37035 -0.52449 3.41376
                  CHANNELS 3 Zrotation Xrotation Yrotation
                  End Site
                  {
                    OFFSET -1.78271 -1.18214 1.43049
                  }
                }
              }
              JOINT rIndex1
              {
                OFFSET -7.75947 0.938293 5.60832
                CHANNELS 3 Zrotation Xrotation Yrotation
                JOINT rIndex2
                {
                  OFFSET -2.54057 -0.884171 1.56538
                  CHANNELS 3 Zrotation Xrotation Yrotation
                  End Site
                  {
                    OFFSET -1.62519 -0.234802 1.16502
                  }
                }
              }
              JOINT rMid1
              {
                OFFSET -8.24714 1.18213 3.41376
                CHANNELS 3 Zrotation Xrotation Yrotation
                JOINT rMid2
                {
                  OFFSET -3.10165 -0.590103 1.0647
                  CHANNELS 3 Zrotation Xrotation Yrotation
                  End Site
                  {
                    OFFSET -2.48547 -0.328903 0.83742
                  }
                }
              }
              JOINT rRing1
              {
                OFFSET -8.82822 0.546677 1.51678
                CHANNELS 3 Zrotation Xrotation Yrotation
                JOINT rRing2
                {
                  OFFSET -2.60934 -0.819778 -0.0198488
                  CHANNELS 3 Zrotation Xrotation Yrotation
                  End Site
                  {
                    OFFSET -2.33842 -0.294052 0.168128
                  }
                }
              }
              JOINT rPinky1
              {
                OFFSET -8.27202 -0.0477905 -0.4584
                CHANNELS 3 Zrotation Xrotation Yrotation
                JOINT rPinky2
                {
                  OFFSET -1.82734 -0.647385 -0.700984
                  CHANNELS 3 Zrotation Xrotation Yrotation
                  End Site
                  {
                    OFFSET -1.69225 -0.51767 -0.607171
                  }
                }
              }
            }
          }
        }
      }
      JOINT lCollar
      {
        OFFSET 2.68224 19.2634 -4.8768
        CHANNELS 3 Zrotation Xrotation Yrotation
        JOINT lShldr
        {
          OFFSET 8.77824 -1.95073 1.46304
          CHANNELS 3 Zrotation Xrotation Yrotation
          JOINT lForeArm
          {
            OFFSET 28.1742 -1.7115 0.48768
            CHANNELS 3 Zrotation Xrotation Yrotation
            JOINT lHand
            {
              OFFSET 22.5879 0.773209 7.07136
              CHANNELS 3 Zrotation Xrotation Yrotation
              JOINT lThumb1
              {
                OFFSET 1.2192 -0.487915 3.41376
                CHANNELS 3 Zrotation Xrotation Yrotation
                JOINT lThumb2
                {
                  OFFSET 3.37035 -0.52449 3.41376
                  CHANNELS 3 Zrotation Xrotation Yrotation
                  End Site
                  {
                    OFFSET 1.78271 -1.18214 1.43049
                  }
                }
              }
              JOINT lIndex1
              {
                OFFSET 7.75947 0.938293 5.60832
                CHANNELS 3 Zrotation Xrotation Yrotation
                JOINT lIndex2
                {
                  OFFSET 2.54057 -0.884171 1.56538
                  CHANNELS 3 Zrotation Xrotation Yrotation
                  End Site
                  {
                    OFFSET 1.62519 -0.234802 1.16502
                  }
                }
              }
              JOINT lMid1
              {
                OFFSET 8.24714 1.18213 3.41376
                CHANNELS 3 Zrotation Xrotation Yrotation
                JOINT lMid2
                {
                  OFFSET 3.10165 -0.590103 1.0647
                  CHANNELS 3 Zrotation Xrotation Yrotation
                  End Site
                  {
                    OFFSET 2.48547 -0.328903 0.83742
                  }
                }
              }
              JOINT lRing1
              {
                OFFSET 8.82822 0.546677 1.51678
                CHANNELS 3 Zrotation Xrotation Yrotation
                JOINT lRing2
                {
                  OFFSET 2.60934 -0.819778 -0.0198488
                  CHANNELS 3 Zrotation Xrotation Yrotation
                  End Site
                  {
                    OFFSET 2.33842 -0.294052 0.168128
                  }
                }
              }
              JOINT lPinky1
              {
                OFFSET 8.27202 -0.0477905 -0.4584
                CHANNELS 3 Zrotation Xrotation Yrotation
                JOINT lPinky2
                {
                  OFFSET 1.82734 -0.647385 -0.700984
                  CHANNELS 3 Zrotation Xrotation Yrotation
                  End Site
                  {
                    OFFSET 1.69225 -0.51767 -0.607171
                  }
                }
              }
            }
          }
        }
      }
    }
  }
  JOINT rButtock
  {
    OFFSET -8.77824 4.35084 1.2192
    CHANNELS 3 Zrotation Xrotation Yrotation
    JOINT rThigh
    {
      OFFSET 0.0 -1.70687 -2.19456
      CHANNELS 3 Zrotation Xrotation Yrotation
      JOINT rShin
      {
        OFFSET 0.0 -36.8199 0.73152
        CHANNELS 3 Zrotation Xrotation Yrotation
        JOINT rFoot
        {
          OFFSET 0.73152 -45.1104 -5.12064
          CHANNELS 3 Zrotation Xrotation Yrotation
          End Site
          {
            OFFSET -1.1221 -3.69964 12.103
          }
        }
      }
    }
  }
  JOINT lButtock
  {
    OFFSET 8.77824 4.35084 1.2192
    CHANNELS 3 Zrotation Xrotation Yrotation
    JOINT lThigh
    {
      OFFSET 0.0 -1.70687 -2.19456
      CHANNELS 3 Zrotation Xrotation Yrotation
      JOINT lShin
      {
        OFFSET 0.0 -36.8199 0.73152
        CHANNELS 3 Zrotation Xrotation Yrotation
        JOINT lFoot
        {
          OFFSET -0.73152 -45.1104 -5.12064
          CHANNELS 3 Zrotation Xrotation Yrotation
          End Site
          {
            OFFSET 1.1221 -3.69964 12.103
          }
        }
      }
    }
  }
}
MOTION
Frames: 4
Frame Time: 0.00833333
0.0 75.0 0.0 -50.7111 80.81 -42.3895 2.08277 3.81104 1.81099 -1.2038 0.228997 0.63097 1.9092 2.07288 0.818536 -2.59964 -11.8323 0.602437 -0.0 0.0 0.0 -0.0 0.0 0.0 0.0 0.0 0.0 0.0 0.0 0.0 0.0 0.0 0.0 0.106814 -7.30477 -0.997446 -2.53725e-10 -2.42454e-10 -3.49329e-10 -4.32774e-10 -4.2235e-10 -6.08223e-10 -2.5372e-10 -2.42453e-10 -3.49342e-10 7.73091 5.47488 0.417314 -2.53725e-10 -2.42455e-10 -3.49328e-10 2.90554 0.965183 0.102902 -2.53721e-10 -2.42455e-10 -3.49323e-10 10.2786 0.731801 0.0259123 -2.53731e-10 -2.42455e-10 -3.49311e-10 2.22167 -0.733487 -0.20892 1.09474e-15 -1.04828e-17 -2.48481e-16 2.18958e-14 -3.41661e-16 -5.96354e-16 4.1546e-13 1.14898e-13 1.59028e-14 -0.023722 -3.42247 0.477918 6.0742e-11 4.69524e-10 1.50383e-10 1.01655e-10 8.11122e-10 2.62152e-10 6.07343e-11 4.69529e-10 1.50396e-10 -7.73091 5.47488 -0.417314 6.07424e-11 4.69524e-10 1.50383e-10 -2.90554 0.965183 -0.102902 6.0732e-11 4.69524e-10 1.50382e-10 -10.2786 0.731801 -0.0259123 6.07466e-11 4.69525e-10 1.50373e-10 -2.22167 -0.733487 0.20892 -2.03217e-16 0.0 -3.88251e-19 4.85616 2.54597 1.6945 0.0499342 5.51199 0.192943 -0.459907 3.36312 -8.09207 2.03217e-16 0.0 3.88251e-19 3.49993 -14.49 -3.51719 -0.0764868 8.45057 -0.185159 1.20021 -3.69033 4.80188
0.0 75.0 0.0 -55.0282 81.5833 -45.6711 3.52532 7.82106 3.77515 -2.63027 0.47317 1.28541 3.87119 4.2802 1.69017 -5.11705 -24.3849 1.31431 -0.0 0.0 0.0 -0.0 0.0 0.0 0.0 0.0 0.0 0.0 0.0 0.0 0.0 0.0 0.0 -0.0657946 -14.924 -2.09441 -4.83554e-10 -4.99375e-10 -6.91675e-10 -8.24932e-10 -8.69858e-10 -1.20423e-09 -4.83549e-10 -4.99376e-10 -6.91693e-10 7.73091 5.47488 0.417314 -4.83554e-10 -4.99377e-10 -6.91678e-10 2.90554 0.965183 0.102902 -4.8355e-10 -4.99377e-10 -6.91674e-10 10.2786 0.731801 0.0259123 -4.83559e-10 -4.99376e-10 -6.91662e-10 2.22167 -0.733487 -0.20892 -1.87769e-15 -7.07243e-15 -4.31502e-14 -21.4744 6.40206 -2.54902 5.33944 -2.69988 -8.02191 0.013674 -7.01848 0.985878 1.49087e-10 9.77203e-10 2.80734e-10 2.51034e-10 1.6881e-09 4.89791e-10 1.49077e-10 9.7721e-10 2.80744e-10 -7.73091 5.47488 -0.417314 1.49087e-10 9.77204e-10 2.80734e-10 -2.90554 0.965183 -0.102902 1.49074e-10 9.77204e-10 2.80733e-10 -10.2786 0.731801 -0.0259123 1.49088e-10 9.77204e-10 2.80725e-10 -2.22167 -0.733487 0.20892 -2.03217e-16 0.0 -3.88251e-19 8.62969 10.0408 3.71432 0.0815981 8.28524 0.409664 0.0360096 4.78478 -16.8251 2.03217e-16 0.0 3.88251e-19 5.55362 -27.1154 -7.99204 -0.0743915 18.5507 -0.478336 3.41023 -11.3286 10.3178
0.0 75.0 0.0 -66.0953 81.346 -56.0387 4.4938 11.3943 5.50029 -3.90966 0.697475 1.84393 5.5491 6.21354 2.46851 -6.90822 -35.4794 2.17241 -0.0 0.0 0.0 -0.0 0.0 0.0 0.0 0.0 0.0 0.0 0.0 0.0 0.0 0.0 0.0 -0.492552 -21.8867 -3.19882 -7.13405e-10 -7.27713e-10 -1.04794e-09 -1.21581e-09 -1.26764e-09 -1.82461e-09 -7.13401e-10 -7.27716e-10 -1.04796e-09 7.73091 5.47488 0.417314 -7.13405e-10 -7.27717e-10 -1.04795e-09 2.90554 0.965183 0.102902 -7.134e-10 -7.27717e-10 -1.04794e-09 10.2786 0.731801 0.0259123 -7.13409e-10 -7.27715e-10 -1.04793e-09 2.22167 -0.733487 -0.20892 -5.15652e-15 -1.48675e-14 -9.0534e-14 -43.5371 13.0992 -5.32154 10.1902 -5.39386 -16.5892 0.102472 -10.2645 1.45448 2.29962e-10 1.40822e-09 4.51167e-10 3.87389e-10 2.43277e-09 7.86483e-10 2.29951e-10 1.40823e-09 4.51175e-10 -7.73091 5.47488 -0.417314 2.29963e-10 1.40823e-09 4.51167e-10 -2.90554 0.965183 -0.102902 2.29948e-10 1.40823e-09 4.51166e-10 -10.2786 0.731801 -0.0259123 2.2996e-10 1.40822e-09 4.51158e-10 -2.22167 -0.733487 0.20892 -2.03217e-16 0.0 -3.88251e-19 11.5218 16.3939 5.44604 0.0871186 11.6566 0.611242 0.719705 5.68469 -24.5503 2.03217e-16 0.0 3.88251e-19 5.17583 -37.9758 -13.0617 0.0337559 27.6818 -0.769501 6.52466 -17.6724 15.3675
0.0 75.0 0.0 -73.958 81.0944 -63.2814 4.81754 13.9232 6.53229 -4.81066 0.872438 2.16256 6.64649 7.46696 3.00077 -7.51493 -42.9426 3.07688 -0.0 0.0 0.0 -0.0 0.0 0.0 0.0 0.0 0.0 0.0 0.0 0.0 0.0 0.0 0.0 -1.00502 -27.2314 -4.14758 -9.43311e-10 -8.84598e-10 -1.43901e-09 -1.6035e-09 -1.54111e-09 -2.50593e-09 -9.43308e-10 -8.846e-10 -1.43903e-09 7.73091 5.47488 0.417314 -9.43311e-10 -8.84602e-10 -1.43901e-09 2.90554 0.965183 0.102902 -9.43306e-10 -8.84601e-10 -1.43901e-09 10.2786 0.731801 0.0259123 -9.43313e-10 -8.846e-10 -1.439e-09 2.22167 -0.733487 -0.20892 -7.82254e-15 -2.11963e-14 -1.28954e-13 -62.6359 19.0496 -8.04247 13.8084 -7.46589 -24.2575 0.199998 -12.6383 1.80588 2.92166e-10 1.6476e-09 7.21805e-10 4.91189e-10 2.84671e-09 1.25581e-09 2.92153e-10 1.64761e-09 7.21811e-10 -7.73091 5.47488 -0.417314 2.92166e-10 1.6476e-09 7.21805e-10 -2.90554 0.965183 -0.102902 2.92151e-10 1.6476e-09 7.21804e-10 -10.2786 0.731801 -0.0259123 2.92163e-10 1.6476e-09 7.21795e-10 -2.22167 -0.733487 0.20892 -2.03217e-16 0.0 -3.88251e-19 13.3287 19.9803 6.16856 0.0551399 16.5235 0.773605 0.956072 5.74999 -29.6683 2.03217e-16 0.0 3.88251e-19 3.15417 -45.1041 -17.1883 0.193336 34.3923 -0.973577 8.89276 -21.4353 18.4222
